<svg width="28" height="18" viewBox="0 0 28 18" fill="none" xmlns="http://www.w3.org/2000/svg">
<path d="M5.3258 17.9999H3.19533C2.59312 17.9999 2.01557 17.7606 1.58975 17.3348C1.16392 16.909 0.924695 16.3314 0.924695 15.7292V9.96574C0.924695 9.36353 1.16392 8.78599 1.58975 8.36016C2.01557 7.93434 2.59312 7.69511 3.19533 7.69511C3.79753 7.69511 4.37508 7.93434 4.8009 8.36016C5.22673 8.78599 5.46596 9.36353 5.46596 9.96574V13.4586C6.63402 13.4198 7.73901 12.9193 8.53864 12.067C9.33828 11.2147 9.76729 10.08 9.73161 8.91186C9.65331 6.50812 7.58391 4.64543 5.17939 4.64543H3.30024C2.42496 4.64543 1.58553 4.29772 0.966619 3.67881C0.347703 3.05989 0 2.22047 0 1.34519V0.1073H5.10814C9.95319 0.1073 14.0857 3.86557 14.269 8.70985C14.3137 9.91264 14.1155 11.1121 13.6863 12.2366C13.2571 13.3611 12.6057 14.3876 11.7709 15.2547C10.9362 16.1219 9.93524 16.8119 8.82787 17.2835C7.7205 17.7552 6.52943 17.9988 5.3258 17.9999Z" fill="black"/>
<path d="M19.8094 12.3726C19.8094 11.1194 18.7935 10.1035 17.5403 10.1035C16.2871 10.1035 15.2712 11.1194 15.2712 12.3726V15.6266C15.2712 16.8798 16.2871 17.8957 17.5403 17.8957C18.7935 17.8957 19.8094 16.8798 19.8094 15.6266V12.3726Z" fill="black"/>
<path d="M17.5402 4.49898C18.7825 4.49898 19.7897 3.49185 19.7897 2.24949C19.7897 1.00713 18.7825 0 17.5402 0C16.2978 0 15.2907 1.00713 15.2907 2.24949C15.2907 3.49185 16.2978 4.49898 17.5402 4.49898Z" fill="black"/>
<path d="M25.7309 17.8644C25.343 17.8643 24.9615 17.7647 24.623 17.5753C24.2844 17.3859 24.0001 17.1129 23.797 16.7823L18.4853 8.10772C18.1724 7.59501 18.0754 6.97922 18.2156 6.39517C18.3557 5.81112 18.7216 5.30639 19.233 4.99147C19.7466 4.67747 20.3639 4.58027 20.9491 4.72122C21.5343 4.86217 22.0396 5.22974 22.354 5.74314L23.4619 7.55964V3.30026C23.4619 2.42498 23.8096 1.58554 24.4285 0.96662C25.0474 0.347704 25.8868 0 26.7621 0H28V15.5256C28 16.3086 27.6367 17.072 26.9774 17.4948C26.6061 17.7353 26.1733 17.8636 25.7309 17.8644Z" fill="black"/>
</svg>
